# Blender v2.79 (sub 0) OBJ File: 'type4.blend'
# www.blender.org
mtllib type4.mtl
o Cube
v 10.000000 -10.000000 -9.999999
v 10.000000 -10.000000 10.000000
v -10.000001 -10.000000 9.999998
v -9.999996 -10.000000 -10.000004
v 10.000005 10.000000 -9.999994
v 9.999993 10.000000 10.000006
v -10.000004 10.000000 9.999996
v -9.999999 10.000000 -10.000000
vt 0.666667 0.000000
vt 0.666667 0.500000
vt 1.000000 0.500000
vt 1.000000 0.000000
vt 0.666667 0.000000
vt 0.333333 0.000000
vt 0.333333 0.500000
vt 0.666667 0.500000
vt 0.000000 0.500000
vt 0.333333 0.500000
vt 0.333333 0.000000
vt 0.000000 0.000000
vt 0.666667 1.000000
vt 0.333333 0.500000
vt 0.333333 1.000000
vt 0.000000 0.500000
vt 0.000000 1.000000
vt 0.333333 1.000000
vt 0.333333 0.500000
vn 0.0000 1.0000 -0.0000
vn 0.0000 -1.0000 0.0000
vn 0.0000 0.0000 -1.0000
vn 1.0000 0.0000 0.0000
vn -0.0000 -0.0000 1.0000
usemtl Material
s off
f 1/1/1 4/2/1 3/3/1 2/4/1
f 5/5/2 6/6/2 7/7/2 8/8/2
f 2/9/3 3/10/3 7/11/3 6/12/3
f 3/13/4 4/2/4 8/14/4 7/15/4
f 5/16/5 8/17/5 4/18/5 1/19/5
