# Blender v2.79 (sub 0) OBJ File: 'room.blend'
# www.blender.org
mtllib room.mtl
o Cube.003_Cube.004
v -13.717147 -7.500000 1.960000
v -13.717147 -7.100000 1.960000
v -13.717147 -7.500000 -1.960000
v -13.717147 -7.100000 -1.960000
v -3.522811 -7.500000 1.960000
v -3.522811 -7.100000 1.960000
v -3.522811 -7.500000 -1.960000
v -3.522811 -7.100000 -1.960000
vn -1.0000 0.0000 0.0000
vn 0.0000 0.0000 -1.0000
vn 1.0000 0.0000 0.0000
vn 0.0000 0.0000 1.0000
vn 0.0000 -1.0000 0.0000
vn 0.0000 1.0000 0.0000
usemtl None
s off
f 1//1 2//1 4//1 3//1
f 3//2 4//2 8//2 7//2
f 7//3 8//3 6//3 5//3
f 5//4 6//4 2//4 1//4
f 3//5 7//5 5//5 1//5
f 8//6 4//6 2//6 6//6
o Cube.001
v -4.115258 -7.500000 9.800000
v -4.115258 -7.100000 9.800000
v -4.115258 -7.500000 -9.800000
v -4.115258 -7.100000 -9.800000
v 12.875300 -7.500000 9.800000
v 12.875300 -7.100000 9.800000
v 12.875300 -7.500000 -9.800000
v 12.875300 -7.100000 -9.800000
vn -1.0000 0.0000 0.0000
vn 0.0000 0.0000 -1.0000
vn 1.0000 0.0000 0.0000
vn 0.0000 0.0000 1.0000
vn 0.0000 -1.0000 0.0000
vn 0.0000 1.0000 0.0000
usemtl None
s off
f 9//7 10//7 12//7 11//7
f 11//8 12//8 16//8 15//8
f 15//9 16//9 14//9 13//9
f 13//10 14//10 10//10 9//10
f 11//11 15//11 13//11 9//11
f 16//12 12//12 10//12 14//12
o Cube
v 12.779474 7.521383 -9.777799
v 12.779468 7.521383 9.777804
v 12.779477 -7.521383 -9.777797
v 12.779471 -7.521383 9.777801
v -7.577624 7.521383 9.777801
v -12.779472 7.521383 5.797773
v -12.779472 7.521383 -5.797775
v -7.577624 7.521383 -9.777800
v -12.779475 -7.521383 5.797769
v -7.577631 -7.521383 9.777797
v -7.577615 -7.521383 -9.777804
v -12.779467 -7.521383 -5.797781
vn -0.0000 -0.0000 1.0000
vn 0.0000 1.0000 0.0000
vn 0.0000 -1.0000 0.0000
vn 1.0000 0.0000 0.0000
vn 0.0000 0.0000 -1.0000
vn -0.6077 -0.0000 0.7942
vn -0.6077 0.0000 -0.7942
vn -1.0000 -0.0000 -0.0000
usemtl Material
s off
f 26//13 20//13 18//13 21//13
f 21//14 18//14 17//14 24//14 23//14 22//14
f 25//15 28//15 27//15 19//15 20//15 26//15
f 17//16 18//16 20//16 19//16
f 24//17 17//17 19//17 27//17
f 21//18 22//18 25//18 26//18
f 23//19 24//19 27//19 28//19
f 22//20 23//20 28//20 25//20
